<?xml version="1.0" encoding="UTF-8"?>
<svg width="150px" height="150px" viewBox="0 0 150 150" version="1.1" xmlns="http://www.w3.org/2000/svg" xmlns:xlink="http://www.w3.org/1999/xlink">
    <!-- Generator: Sketch 52.5 (67469) - http://www.bohemiancoding.com/sketch -->
    <title>tf-icon-3</title>
    <desc>Created with Sketch.</desc>
    <g id="tf-icon-3" stroke="none" stroke-width="1" fill="none" fill-rule="evenodd">
        <g id="corn">
            <path d="M150,75 C150,116.42189 116.42189,150 75,150 C33.5781097,150 0,116.42189 0,75 C0,33.5781097 33.5781097,0 75,0 C116.42189,0 150,33.5781097 150,75 Z" id="Path" fill="#FE6A16"></path>
            <path d="M83.5899352,149.507904 C117.596054,145.629501 144.693375,119.011688 149.301911,85.2321624 L138.140488,74.0695954 L133.780289,73.7251283 L74.9038696,14.8487092 L78.2112123,62.9814146 L11.8606567,74.0695954 L72.7283479,134.938431 L71.288681,137.207794 L83.5899352,149.507904 Z" id="Path" fill="#F24500"></path>
            <path d="M75,131.731796 L74.9038696,131.635666 C42.6544189,99.3862151 42.6544189,47.0993042 74.9038696,14.8487092 L75,14.7525788 L75.0961304,14.8487092 C107.345581,47.0981599 107.345581,99.3862151 75.0961304,131.635666 L75,131.731796 Z" id="Path" fill="#FFDA00"></path>
            <path d="M75.0961304,14.8487092 L75,14.7525788 L75,131.730652 L75.0961304,131.635666 C107.345581,99.3862151 107.345581,47.0993042 75.0961304,14.8487092 Z" id="Path" fill="#FFB000"></path>
            <path d="M53.4118652,94.1963197 C56.9950104,107.912064 64.1555786,120.887375 74.9038696,131.635666 L75,131.730652 L75.0961304,131.635666 C85.8444214,120.887375 93.0049896,107.912064 96.5881348,94.1963197 L53.4118652,94.1963197 Z" id="Path" fill="#00617F"></path>
            <path d="M75,94.1963197 L75,131.731796 L75.0961304,131.635666 C85.8444214,120.887375 93.0049896,107.913208 96.5881348,94.1963197 L75,94.1963197 Z" id="Path" fill="#054B56"></path>
            <path d="M82.025528,108.916855 L58.4518433,63.8877867 C51.8680573,52.5260924 36.3658904,50.3665925 26.9279479,59.4955444 L11.8606567,74.0695954 L34.1400146,73.413849 C37.7151489,73.3085631 41.0396575,75.2506257 42.7036286,78.4172057 L61.9789125,114.91127 L82.025528,108.916855 Z" id="Path" fill="#007D91"></path>
            <path d="M61.9789125,114.912415 L91.5481567,63.8877867 C98.1319427,52.5260924 113.63411,50.3665925 123.072052,59.4955444 L138.139343,74.0695954 L115.859985,73.413849 C112.284851,73.3085631 108.960342,75.2506257 107.296371,78.4172057 L89.6965025,111.906052 L61.9789125,114.912415 Z" id="Path" fill="#00617F"></path>
            <polygon id="Path" fill="#00617F" points="61.9789125 114.912415 75 113.499069 75 92.4430846"></polygon>
            <path d="M123.072052,59.4955444 C113.63411,50.3665925 98.1319427,52.5260924 91.5481567,63.8877867 L75,92.4430846 L75,113.499069 L89.6965025,111.906052 L107.296371,78.4172057 C108.960342,75.2506257 112.283707,73.3085631 115.859985,73.413849 L138.139343,74.0695954 L123.072052,59.4955444 Z" id="Path" fill="#054B56"></path>
            <polygon id="Path" fill="#00617F" points="71.288681 125.4879 78.7101744 125.4879 78.7101744 137.20665 71.288681 137.20665"></polygon>
            <polygon id="Path" fill="#054B56" points="75 125.4879 78.711319 125.4879 78.711319 137.20665 75 137.20665"></polygon>
            <g id="Group" transform="translate(78.515625, 31.933594)" fill="#FFFFFF">
                <path d="M3.46641533,13.086319 C1.65939316,13.086319 0.194549414,11.6214753 0.194549414,9.81445312 L0.194549414,3.46641533 C0.194549414,1.65939316 1.65939316,0.194549414 3.46641533,0.194549414 C5.2734375,0.194549414 6.73828125,1.65939316 6.73828125,3.46641533 L6.73828125,9.81445312 C6.73828125,11.6214753 5.2734375,13.086319 3.46641533,13.086319 Z" id="Path"></path>
                <path d="M10.0101472,25.976944 C8.203125,25.976944 6.73828125,24.5121003 6.73828125,22.7050781 L6.73828125,16.3570403 C6.73828125,14.5500182 8.203125,13.0851744 10.0101472,13.0851744 C11.8171693,13.0851744 13.2820131,14.5500182 13.2820131,16.3570403 L13.2820131,22.7050781 C13.2808685,24.5121003 11.8171693,25.976944 10.0101472,25.976944 Z" id="Path"></path>
                <path d="M3.46641533,38.6970521 C1.65939316,38.6970521 0.194549414,37.2333527 0.194549414,35.4263306 L0.194549414,29.0782928 C0.194549414,27.2712709 1.65939316,25.8064271 3.46641533,25.8064271 C5.2734375,25.8064271 6.73828125,27.2712709 6.73828125,29.0782928 L6.73828125,35.4263306 C6.73828125,37.2322084 5.2734375,38.6970521 3.46641533,38.6970521 Z" id="Path"></path>
            </g>
        </g>
    </g>
</svg>