<?xml version="1.0" encoding="UTF-8"?>
<svg width="150px" height="150px" viewBox="0 0 150 150" version="1.1" xmlns="http://www.w3.org/2000/svg" xmlns:xlink="http://www.w3.org/1999/xlink">
    <!-- Generator: Sketch 52.5 (67469) - http://www.bohemiancoding.com/sketch -->
    <title>tf-icon-2</title>
    <desc>Created with Sketch.</desc>
    <defs>
        <circle id="path-1" cx="75" cy="75" r="75"></circle>
    </defs>
    <g id="tf-icon-2" stroke="none" stroke-width="1" fill="none" fill-rule="evenodd">
        <g id="soy">
            <g>
                <g id="Line">
                    <mask id="mask-2" fill="white">
                        <use xlink:href="#path-1"></use>
                    </mask>
                    <use id="Mask" fill="#FE6A16" fill-rule="nonzero" xlink:href="#path-1"></use>
                    <polygon fill="#F24500" fill-rule="nonzero" mask="url(#mask-2)" points="30.5 119.5 75 174 160.5 104.963705 117.93428 31.9335938"></polygon>
                </g>
                <path d="M120.198298,31.1017021 C119.972128,30.4191489 119.435957,29.882766 118.753191,29.6568085 C118.194681,29.472766 105.01234,25.1534043 98.2085106,25.0093617 C86.6308511,24.7055319 76.1259574,31.9106383 72.0923404,42.7968085 C70.9708511,45.8219149 68.4797872,48.2597872 65.2529787,49.49 C58.0014894,52.2559574 52.2525532,58.0025532 49.4910638,65.2542553 C48.2587234,68.4810638 45.8208511,70.9744681 42.793617,72.0957447 C31.9161702,76.1248936 24.766383,86.6165957 25.0057447,98.2010638 C25.1476596,105.011702 29.5225532,118.160638 29.7087234,118.717021 C29.9346809,119.392979 30.4665957,119.922766 31.1448936,120.148723 C31.6989362,120.334894 44.8412766,124.70766 51.6495745,124.851702 C51.8446809,124.85617 52.0351064,124.858298 52.2302128,124.858298 C63.5819149,124.858298 73.7987234,117.766383 77.7657447,107.064043 C78.887234,104.038936 81.3782979,101.601064 84.6051064,100.370851 C91.8565957,97.6048936 97.6055319,91.8582979 100.367021,84.6065957 C101.599362,81.3797872 104.037234,78.886383 107.064468,77.7651064 C117.941915,73.7359574 125.091489,63.2442553 124.852128,51.6597872 C124.710426,44.853617 120.384468,31.6602128 120.198298,31.1017021 Z" id="Path" fill="#086A56"></path>
                <path d="M118.580213,36.1702128 C118.457234,36.1317021 118.266809,36.0740426 118.125957,36.0302128 C119.272979,40.1974468 120.505532,45.372766 120.573617,48.6323404 C120.773191,58.2844681 114.815532,67.0276596 105.746383,70.3876596 C101.495532,71.9612766 98.0823404,75.416383 96.3891489,79.8668085 C94.0842553,85.9129787 89.2925532,90.7023404 83.2508511,93.007234 C78.8004255,94.702766 75.3429787,98.113617 73.7693617,102.364468 C70.4048936,111.438085 61.677234,117.512979 52.0051064,117.191702 C47.1068085,117.089149 37.9165957,114.334255 34.3491489,113.208085 C35.0012766,115.546383 35.6278723,117.576383 36.0002128,118.747447 C39.2493617,119.782553 49.0055319,122.758936 54.0853191,122.865319 C63.757234,123.186596 72.4851064,117.111702 75.8495745,108.038085 C77.4231915,103.787234 80.8806383,100.376383 85.3310638,98.6808511 C91.372766,96.3759574 96.1644681,91.586383 98.4693617,85.5404255 C100.162553,81.09 103.575745,77.6348936 107.826596,76.0612766 C116.895745,72.7012766 122.853191,63.9580851 122.65383,54.3059574 C122.547447,49.2221277 119.604043,39.4414894 118.580213,36.1702128 Z" id="Path" fill="#055645"></path>
                <ellipse id="Oval" fill="#FFDA00" cx="97.5523937" cy="52.2340426" rx="13.6162235" ry="13.6170213"></ellipse>
                <path d="M97.5520745,59.0424734 C91.2276009,59.0424734 85.9418881,54.6867628 84.4193296,48.8297872 C84.1346677,49.9244595 83.9361702,51.0516848 83.9361702,52.2341223 C83.9361702,59.7439573 90.04619,65.8511436 97.5523937,65.8511436 C105.058597,65.8511436 111.168617,59.7442764 111.168617,52.2341223 C111.168617,51.0520039 110.97012,49.9244595 110.685458,48.8297872 C109.162261,54.6867628 103.876229,59.0424734 97.5520745,59.0424734 Z" id="Path" fill="#FFB000"></path>
                <ellipse id="Oval" fill="#FFDA00" cx="74.5736703" cy="74.787234" rx="13.6162235" ry="13.6170213"></ellipse>
                <path d="M74.5733511,81.5956649 C68.2488775,81.5956649 62.9631647,77.2399542 61.4406062,71.3829787 C61.1559443,72.477651 60.9574468,73.6048763 60.9574468,74.7873138 C60.9574468,82.2971488 67.0674666,88.4043351 74.5736703,88.4043351 C82.0798739,88.4043351 88.1898937,82.2974679 88.1898937,74.7873138 C88.1898937,73.6051954 87.9913963,72.477651 87.7067343,71.3829787 C86.1835376,77.2399542 80.8975056,81.5956649 74.5733511,81.5956649 Z" id="Path" fill="#FFB000"></path>
                <ellipse id="Oval" fill="#FFDA00" cx="49.0417554" cy="97.1276596" rx="13.6162235" ry="13.6170213"></ellipse>
                <path d="M49.0414362,103.93609 C42.7169626,103.93609 37.4312498,99.5803798 35.9086913,93.7234043 C35.6240294,94.8180766 35.4255319,95.9453018 35.4255319,97.1277394 C35.4255319,104.637574 41.5355517,110.744761 49.0417554,110.744761 C56.547959,110.744761 62.6579788,104.637893 62.6579788,97.1277394 C62.6579788,95.9456209 62.4594814,94.8180766 62.1748194,93.7234043 C60.6516227,99.5803798 55.3655907,103.93609 49.0414362,103.93609 Z" id="Path" fill="#FFB000"></path>
            </g>
        </g>
    </g>
</svg>