<?xml version="1.0" encoding="UTF-8"?>
<svg width="150px" height="150px" viewBox="0 0 150 150" version="1.1" xmlns="http://www.w3.org/2000/svg" xmlns:xlink="http://www.w3.org/1999/xlink">
    <!-- Generator: Sketch 52.5 (67469) - http://www.bohemiancoding.com/sketch -->
    <title>tf-icon-1</title>
    <desc>Created with Sketch.</desc>
    <g id="tf-icon-1" stroke="none" stroke-width="1" fill="none" fill-rule="evenodd">
        <g id="Image">
            <path d="M150,75 C150,116.42189 116.42189,150 75,150 C33.5781097,150 0,116.42189 0,75 C0,33.5781097 33.5781097,0 75,0 C116.42189,0 150,33.5781097 150,75 Z" id="Path" fill="#FE6A16"></path>
            <path d="M150,74.9497081 C150,71.4225642 149.750622,67.9538244 149.280464,64.5549404 L100.508719,15.7303371 L84.476445,33.9203218 L71.4973384,20.9260031 L54.1243705,37.1394132 L80.354841,63.3983119 L53.4494479,63.7510263 L40.9221961,51.2101978 L26.4044944,64.1060312 L50.495803,88.2234498 L27.0668339,87.0095626 L42.5259954,102.486624 L27.0668339,109.329054 L46.408517,128.691699 L46.5846831,144.403522 C55.3575342,148.007393 64.9608835,150 75.0309591,150 C116.435751,150 150,116.399374 150,74.9497081 Z" id="Path" fill="#F24500"></path>
            <path d="M43.5399035,58.721354 C43.5399035,52.0427682 38.0709839,46.6292135 31.3240955,46.6292135 L22.4719101,46.6292135 L22.4719101,55.3917833 C22.4719101,62.0703691 27.9408298,67.4839238 34.6877181,67.4839238 L40.3912017,67.4839238 L40.3912017,72.9123479 C38.1564901,70.4623511 34.922282,68.9216669 31.3240955,68.9216669 L22.4719101,68.9216669 L22.4719101,77.6842369 C22.4719101,84.3628227 27.9408298,89.7763774 34.6877181,89.7763774 L40.3912017,89.7763774 L40.3912017,95.2048013 C38.1564901,92.7548048 34.922282,91.2141205 31.3240955,91.2141205 L22.4719101,91.2141205 L22.4719101,99.977834 C22.4719101,106.655276 27.9408298,112.068831 34.6877181,112.068831 L40.3912017,112.068831 L40.3912017,141.482517 C42.4364137,142.540522 44.5370889,143.509311 46.68745,144.382022 L46.68745,112.068831 L52.3920893,112.068831 C59.1378219,112.068831 64.6067416,106.655276 64.6067416,99.977834 L64.6067416,91.2141205 L55.7545561,91.2141205 C52.1563696,91.2141205 48.9233173,92.7548048 46.68745,95.2048013 L46.68745,89.7763774 L52.3920893,89.7763774 C59.1378219,89.7763774 64.6067416,84.3628227 64.6067416,77.6842369 L64.6067416,68.9216669 L55.7545561,68.9216669 C52.1563696,68.9216669 48.9233173,70.4623511 46.68745,72.9123479 L46.68745,67.4839238 L52.3909336,67.4839238 C59.1378219,67.4839238 64.6067416,62.0703691 64.6067416,55.3917833 L64.6067416,46.6292135 L55.7545561,46.6292135 C49.0088235,46.6292135 43.5399035,52.0427682 43.5399035,58.721354 Z" id="Path" fill="#FFB000"></path>
            <path d="M106.461252,58.7212125 C106.461252,52.0427048 100.992332,46.6292135 94.2465993,46.6292135 L85.3932584,46.6292135 L85.3932584,55.3916807 C85.3932584,62.0701884 90.8621781,67.4836798 97.6090661,67.4836798 L103.313705,67.4836798 L103.313705,72.9120404 C101.077838,70.4620723 97.8436301,68.921406 94.2454439,68.921406 L85.3932584,68.921406 L85.3932584,77.6838736 C85.3932584,84.3623813 90.8621781,89.7758726 97.6090661,89.7758726 L103.31255,89.7758726 L103.31255,95.204233 C101.077838,92.7542651 97.8436301,91.2135989 94.2454439,91.2135989 L85.3932584,91.2135989 L85.3932584,99.9772098 C85.3932584,106.654574 90.8621781,112.068065 97.6079107,112.068065 L103.31255,112.068065 L103.31255,144.382022 C105.462911,143.508178 107.563586,142.5394 109.608798,141.481407 L109.608798,112.068065 L115.313437,112.068065 C122.05917,112.068065 127.52809,106.654574 127.52809,99.9772098 L127.52809,91.2135989 L118.675904,91.2135989 C115.077718,91.2135989 111.844665,92.7542651 109.608798,95.204233 L109.608798,89.7758726 L115.312282,89.7758726 C122.05917,89.7758726 127.52809,84.3623813 127.52809,77.6838736 L127.52809,68.921406 L118.675904,68.921406 C115.077718,68.921406 111.84351,70.4620723 109.607643,72.9120404 L109.607643,67.4836798 L115.312282,67.4836798 C122.05917,67.4836798 127.52809,62.0701884 127.52809,55.3916807 L127.52809,46.6292135 L118.674749,46.6292135 C111.930172,46.6292135 106.461252,52.0427048 106.461252,58.7212125 Z" id="Path" fill="#FFB000"></path>
            <path d="M75.2808989,30.5180021 C75.2808989,22.3517482 68.7177631,15.7303371 60.6233807,15.7303371 L50,15.7303371 L50,26.4480447 C50,34.6142986 56.5631358,41.2357097 64.6575182,41.2357097 L71.5032933,41.2357097 L71.5032933,47.8754437 C68.8210571,44.8785163 64.9401575,42.9947009 60.6233807,42.9947009 L50,42.9947009 L50,53.7124086 C50,61.8786625 56.5631358,68.5000736 64.6575182,68.5000736 L71.5032933,68.5000736 L71.5032933,75.1398075 C68.8210571,72.1428802 64.9401575,70.2590648 60.6233807,70.2590648 L50,70.2590648 L50,80.9767724 C50,89.1430264 56.5631358,95.7644375 64.6575182,95.7644375 L71.5032933,95.7644375 L71.5032933,149.903805 C72.7541713,149.967935 74.0141297,150 75.2808989,150 C76.5476681,150 77.8076265,149.967935 79.0585045,149.903805 L79.0585045,95.7644375 L85.9042795,95.7644375 C93.998662,95.7644375 100.561798,89.1430264 100.561798,80.9767724 L100.561798,70.2590648 L89.9384171,70.2590648 C85.6216403,70.2590648 81.7407407,72.1428802 79.0585045,75.1398075 L79.0585045,68.5000736 L85.9042795,68.5000736 C93.998662,68.5000736 100.561798,61.8786625 100.561798,53.7124086 L100.561798,42.9947009 L89.9384171,42.9947009 C85.6216403,42.9947009 81.7407407,44.8785163 79.0585045,47.8754437 L79.0585045,41.2357097 L85.9042795,41.2357097 C93.998662,41.2357097 100.561798,34.6142986 100.561798,26.4480447 L100.561798,15.7303371 L89.9384171,15.7303371 C81.8440347,15.7303371 75.2808989,22.3517482 75.2808989,30.5180021 Z" id="Path" fill="#FFDA00"></path>
            <path d="M85.5785569,41.2357097 C93.8528145,41.2357097 100.561798,34.6142986 100.561798,26.4480447 L100.561798,15.7303371 L89.702342,15.7303371 C81.4280844,15.7303371 74.7191011,22.3517482 74.7191011,30.5180021 L74.7191011,150 C76.0140207,150 77.3019783,149.967935 78.5806535,149.903805 L78.5806535,95.7644375 L85.5785569,95.7644375 C93.8528145,95.7644375 100.561798,89.1430264 100.561798,80.9767724 L100.561798,70.2590648 L89.702342,70.2590648 C85.2896368,70.2590648 81.322495,72.1428802 78.5806535,75.1398075 L78.5806535,68.5000736 L85.5785569,68.5000736 C93.8528145,68.5000736 100.561798,61.8786625 100.561798,53.7124086 L100.561798,42.9947009 L89.702342,42.9947009 C85.2896368,42.9947009 81.322495,44.8785163 78.5806535,47.8754437 L78.5806535,41.2357097 L85.5785569,41.2357097 Z" id="Path" fill="#FFB000"></path>
        </g>
    </g>
</svg>